# xmcd CD database file
#
# Track frame offsets:
#	150
#	25938
#	53829
#	84815
#	112883
#	131796
#	163041
#	192597
#	223024
#
# Disc length: 3255 seconds
#
# Revision: 0
# Processed by: cddbd v1.5.1PL0 Copyright (c) Steve Scherf et al.
# Submitted via: CDex 1.51
#
DISCID=770cb509
DTITLE=Moncef Genoud Trio - Mister Mat
DYEAR=1994
DGENRE=Jazz
TTITLE0=Mister Mingus
TTITLE1=Giant Steps
TTITLE2=Infant Eyes
TTITLE3=Foncef
TTITLE4=To Start Again
TTITLE5=Louloute
TTITLE6=Evidence
TTITLE7=The Night Has A Thousand Eyes
TTITLE8=Mister Mat
EXTD=YEAR: 1994
EXTT0=
EXTT1=
EXTT2=
EXTT3=
EXTT4=
EXTT5=
EXTT6=
EXTT7=
EXTT8=
PLAYORDER=
